<svg height="511pt" viewBox="-37 1 511 511.99918" width="511pt" xmlns="http://www.w3.org/2000/svg"><path d="m48.078125 107.78125c-4.140625 0-7.5 3.359375-7.5 7.5v41.207031c0 5.738281 4.671875 10.410157 10.410156 10.410157h14.8125c4.144531 0 7.5-3.359376 7.5-7.5 0-4.144532-3.355469-7.5-7.5-7.5h-10.222656v-36.617188c0-4.140625-3.355469-7.5-7.5-7.5zm0 0"/><path d="m82.863281 237.566406v-41.203125c0-5.742187-4.667969-10.410156-10.410156-10.410156h-21.464844c-5.738281 0-10.410156 4.667969-10.410156 10.410156v41.203125c0 5.742188 4.671875 10.410156 10.410156 10.410156h21.464844c5.742187 0 10.410156-4.667968 10.410156-10.410156zm-15-4.589844h-12.285156v-32.023437h12.285156zm0 0"/><path d="m50.988281 267.03125c-5.738281 0-10.410156 4.667969-10.410156 10.40625v20.605469c0 4.140625 3.359375 7.5 7.5 7.5 4.144531 0 7.5-3.359375 7.5-7.5v-16.011719h7.957031c4.144532 0 7.5-3.359375 7.5-7.5 0-4.144531-3.355468-7.5-7.5-7.5zm0 0"/><path d="m16.578125 359.710938c4.144531 0 7.5-3.355469 7.5-7.5v-258.09375c0-4 3.253906-7.25 7.25-7.25h5.171875c4.144531 0 7.5-3.355469 7.5-7.5 0-4.144532-3.355469-7.5-7.5-7.5h-5.171875c-12.269531 0-22.25 9.980468-22.25 22.25v258.09375c0 4.144531 3.359375 7.5 7.5 7.5zm0 0"/><path d="m276.257812 355.554688c4.140626 0 7.5-3.355469 7.5-7.5v-34.703126c0-5.738281-4.671874-10.410156-10.410156-10.410156h-7.285156c-4.144531 0-7.5 3.359375-7.5 7.5 0 4.144532 3.355469 7.5 7.5 7.5h2.691406v30.113282c.003906 4.144531 3.359375 7.5 7.503906 7.5zm0 0"/><path d="m431.347656 33.199219c-5.34375-6.46875-13.21875-10.179688-21.613281-10.179688h-161.730469c-4.140625 0-7.5 3.355469-7.5 7.5 0 4.140625 3.359375 7.5 7.5 7.5h161.730469c3.902344 0 7.5625 1.722657 10.046875 4.730469 2.484375 3.011719 3.488281 6.9375 2.75 10.769531l-63.621094 329.800781c-1.957031 10.140626-10.875 17.5-21.207031 17.5h-64.382813c-1.957031-50.515624-15.03125-88.957031-26.871093-123.78125-5.425781-15.957031-10.621094-31.242187-14.207031-46.382812-.007813-.035156-.019532-.070312-.027344-.101562-.382813-1.621094-.746094-3.238282-1.089844-4.859376-.03125-.179687-.070312-.355468-.113281-.53125-.621094-2.957031-1.175781-5.910156-1.648438-8.863281-3.871093-24.101562-2.339843-47.4375-.722656-72.152343.558594-8.488282 1.132813-17.234376 1.511719-26.332032.011718-.164062.019531-.332031.019531-.5 1.289063-31.5625.210937-67.40625-11.964844-111.800781-.894531-3.257813-3.855469-5.515625-7.234375-5.515625h-27.121094c-.089843 0-.179687 0-.269531 0h-124.804687c-2.019532 0-3.953125.8125-5.363282 2.257812-1.414062 1.445313-2.183593 3.394532-2.136718 5.414063 1.101562 48.90625 8.351562 82.941406 16.4375 111.429687.035156.128907.070312.257813.113281.386719 2.484375 8.730469 5.042969 16.941407 7.527344 24.902344 8.464843 27.148437 15.816406 50.71875 16.300781 82.417969 0 .054687-.003906.113281-.003906.171875 0 .132812.003906.261719.011718.390625.011719.917968.019532 1.839844.019532 2.769531 0 32.6875-17.753906 59.433594-38.308594 90.402344-22.375 33.710937-47.734375 71.917969-52.839844 125.195312-.203125 2.101563.492188 4.195313 1.914063 5.757813 1.421875 1.566406 3.4375 2.457031 5.550781 2.457031h9.179688l-15.390626 45.492187c-.980468 2.898438-.5 6.109376 1.28125 8.59375 1.78125 2.480469 4.664063 3.960938 7.714844 3.960938h31.679688c4.050781 0 7.664062-2.578125 9.003906-6.457031l17.453125-51.589844h39.015625l-15.398438 45.492187c-.980468 2.898438-.5 6.109376 1.28125 8.59375 1.78125 2.480469 4.664063 3.960938 7.714844 3.960938h31.679688c4.050781 0 7.664062-2.578125 9.003906-6.457031l17.453125-51.589844h34.039063l-10.910157 46.335937c-.683593 2.84375-.035156 5.792969 1.777344 8.09375 1.8125 2.296876 4.53125 3.617188 7.457031 3.617188h31.777344c4.402344 0 8.203125-2.996094 9.25-7.328125l11.957031-50.71875h19.515625c3.875 0 7.109375-2.949219 7.46875-6.808594 1.011719-10.9375 1.503906-21.359375 1.5625-31.324219h6.195313v86.679688c0 5.238281 4.261719 9.5 9.5 9.5h43.339843c5.238282 0 9.5-4.261719 9.5-9.5v-86.945312c15.589844-1.886719 28.503907-13.667969 31.535157-29.394532l63.621093-329.800781c1.589844-8.246094-.566406-16.6875-5.910156-23.160156zm-227.902344 405.753906c-.175781-.003906-.351562-.003906-.523437 0h-21.089844c.964844-14.007813 2.84375-27.5625 5.699219-41.214844.847656-4.054687-1.75-8.027343-5.808594-8.875-4.046875-.847656-8.027344 1.75-8.875 5.804688-3.070312 14.667969-5.058594 29.222656-6.050781 44.285156h-12.242187c-.175782-.003906-.351563-.003906-.523438 0h-25.257812c3.328124-38.105469 14.667968-67.476563 27.121093-94.734375h31.417969c-2.1875 6.199219-4.324219 12.570312-6.359375 19.195312-1.214844 3.960938 1.007813 8.15625 4.96875 9.371094.734375.226563 1.476563.332032 2.203125.332032 3.207031 0 6.175781-2.074219 7.167969-5.300782 2.503906-8.164062 5.199219-15.992187 7.945312-23.597656h29.5c-9.351562 26.5625-18 56.773438-20.511719 94.734375zm-25.933593-204.472656c-1.046875 31.023437-13.210938 56.722656-27.195313 86.273437-1.320312 2.789063-2.65625 5.609375-3.996094 8.464844h-34.355468c.394531-.695312.789062-1.394531 1.179687-2.089844 16.914063-29.882812 32.925781-58.175781 34.179688-92.648437zm-44.207031-219.480469c1.152343 39.910156 7.199218 69.65625 14.488281 94.738281h-24.875c-6.316407-24.972656-11.707031-54.554687-12.800781-94.738281zm15.007812 0h28.734375c4.929687 40.113281 11.496094 69.574219 18.007813 94.738281h-31.605469c-7.523438-24.964843-13.929688-54.539062-15.136719-94.738281zm50.726562 109.738281c.777344 2.867188 1.546876 5.6875 2.308594 8.476563 4.019532 14.710937 7.816406 28.617187 10.65625 42.675781-.304687 14.113281.203125 28.191406 2.546875 42.789063.042969.265624.085938.535156.132813.800781h-22.378906c-1.613282-30.234375-9.90625-53.976563-18.632813-78.957031-1.792969-5.128907-3.621094-10.367188-5.433594-15.78125h30.800781zm-6.265624 204.480469h-29.871094c.320312-.683594.644531-1.367188.96875-2.046875 14.175781-29.949219 27.59375-58.300781 28.648437-92.691406h24.871094c-.828125 31.359375-10.503906 57.125-21.667969 86.855469-.976562 2.609374-1.964844 5.234374-2.949218 7.882812zm21.992187-203.804688c-.058594-.222656-.121094-.449218-.183594-.671874h.21875c-.011719.222656-.019531.445312-.035156.671874zm-75.308594 218.804688c-11.753906 26.550781-22.582031 56.765625-25.734375 94.734375h-42.101562c3.589844-38.082031 17.082031-67.460937 31.96875-94.734375zm69.328125-15c.328125-.871094.65625-1.742188.980469-2.609375 7.148437-19.03125 14.042969-37.402344 18.320313-57.058594 1.355468 4.070313 2.75 8.171875 4.160156 12.316407 3.679687 10.824218 7.484375 22.011718 11.015625 33.816406-.707031 1.898437-1.421875 3.800781-2.136719 5.714844-.96875 2.578124-1.949219 5.183593-2.929688 7.820312zm6.628906-219.480469h-4.859374c-6.601563-25.148437-13.347657-54.464843-18.394532-94.738281h13.046875c9.417969 36.652344 10.945313 67.375 10.207031 94.738281zm-120.300781-94.738281c1.046875 39.929688 6.1875 69.664062 12.335938 94.738281h-26.757813c-6.789062-24.976562-12.691406-54.539062-14.1875-94.738281zm-10.113281 109.738281h26.363281c1.925781 6.996094 3.882813 13.675781 5.792969 20.191407.953125 3.25 1.890625 6.460937 2.8125 9.652343.945312 3.285157 3.945312 5.425781 7.203125 5.425781.6875 0 1.386719-.097656 2.078125-.296874 3.980469-1.144532 6.277344-5.304688 5.132812-9.28125-.925781-3.214844-1.875-6.449219-2.835937-9.722657-1.519531-5.1875-3.070313-10.484375-4.613281-15.96875h25.5c2.351562 7.191407 4.746094 14.046875 7.078125 20.730469 8.621093 24.679688 16.195312 46.367188 17.773437 74.011719h-30.117187c-.566407-12.875-2.195313-25.402344-5-38.703125-.851563-4.050782-4.832031-6.640625-8.886719-5.789063-4.050781.851563-6.644531 4.832031-5.789062 8.882813 2.582031 12.25 4.097656 23.789062 4.660156 35.609375h-25.722656c-1.441407-30.453125-8.902344-54.378907-16.753907-79.558594-1.542969-4.9375-3.113281-9.976563-4.675781-15.183594zm21.589844 109.742188h25.722656c-1.257812 30.550781-15.660156 56-32.222656 85.261719-1.761719 3.117187-3.550782 6.273437-5.339844 9.476562h-29.128906c.085937-.125.167968-.253906.253906-.382812 20.164062-30.378907 39.253906-59.140626 40.714844-94.355469zm-50.828125 109.738281h30.820312c-13.957031 26.539062-26.660156 56.757812-30.019531 94.734375h-28.660156c-.179688-.003906-.359375-.003906-.539063 0h-10.925781c5.367188-38.039063 21.675781-67.382813 39.324219-94.734375zm-17.238281 152.78125h-20.070313l14.5625-43.046875h20.070313zm90.75 0h-20.070313l14.570313-43.046875h20.0625zm90.1875 0h-20.472657l10.132813-43.046875h20.488281zm38.171874-58.046875h-18.277343c-.1875-.007813-.371094-.007813-.558594 0h-11.535156c2.621093-38.128906 11.554687-67.503906 21.398437-94.734375h2.109375c4.300781 19.300781 7.320313 40.425781 7.738281 64.238281v.078125c.167969 9.675782-.09375 19.796875-.875 30.417969zm37.132813 58.046875v-81.179688h32.339844v81.179688zm0 0"/><path d="m357.5 130.890625h21.464844c5.738281 0 10.410156-4.667969 10.410156-10.410156v-41.203125c0-5.742188-4.671875-10.410156-10.410156-10.410156h-21.464844c-5.738281 0-10.410156 4.667968-10.410156 10.410156v41.203125c0 5.742187 4.671875 10.410156 10.410156 10.410156zm4.589844-47.023437h12.285156v32.023437h-12.285156zm0 0"/><path d="m338.472656 196.363281v41.203125c0 5.742188 4.667969 10.410156 10.410156 10.410156h21.464844c5.738282 0 10.410156-4.667968 10.410156-10.410156v-41.203125c0-5.742187-4.671874-10.410156-10.410156-10.410156h-21.464844c-5.742187 0-10.410156 4.667969-10.410156 10.410156zm15 4.589844h12.285156v32.023437h-12.285156zm0 0"/><path d="m300.84375 243.476562v-41.207031c0-5.738281-4.667969-10.40625-10.410156-10.40625h-21.464844c-5.738281 0-10.40625 4.667969-10.40625 10.40625v41.207031c0 5.738282 4.667969 10.40625 10.40625 10.40625h21.464844c5.742187 0 10.410156-4.667968 10.410156-10.40625zm-15-4.59375h-12.28125v-32.019531h12.28125zm0 0"/><path d="m317.832031 303.945312v41.203126c0 5.738281 4.667969 10.410156 10.410157 10.410156h21.464843c5.738281 0 10.40625-4.671875 10.40625-10.410156v-41.203126c0-5.742187-4.667969-10.410156-10.40625-10.410156h-21.464843c-5.742188 0-10.410157 4.667969-10.410157 10.410156zm15 4.589844h12.285157v32.019532h-12.285157zm0 0"/><path d="m276.792969 74.351562h-21.464844c-5.738281 0-10.40625 4.667969-10.40625 10.40625v41.207032c0 5.738281 4.667969 10.40625 10.40625 10.40625h21.464844c5.742187 0 10.410156-4.667969 10.410156-10.40625v-41.207032c0-5.738281-4.667969-10.40625-10.410156-10.40625zm-4.589844 47.019532h-12.28125v-32.019532h12.28125zm0 0"/></svg>