<svg id="Capa_1" enable-background="new 0 0 512.018 512.018" height="512" viewBox="0 0 512.018 512.018" width="512" xmlns="http://www.w3.org/2000/svg"><g><path d="m506.593 419.134-57.379-115.136c-1.55-3.111-2.37-6.593-2.37-10.071v-39.421c9.623-.031 17.443-7.867 17.443-17.497v-10c0-9.649-7.851-17.5-17.5-17.5h-30.787v-136.5c0-30.051-24.449-54.5-54.5-54.5s-54.5 24.449-54.5 54.5v46c0 5.238-4.262 9.5-9.5 9.5s-9.5-4.262-9.5-9.5v-46c0-30.051-24.449-54.5-54.5-54.5s-54.5 24.449-54.5 54.5v12.404c0 4.142 3.358 7.5 7.5 7.5s7.5-3.358 7.5-7.5v-12.404c0-19.216 13.795-35.262 32-38.777v15.455c-9.851 3.176-17 12.427-17 23.321v82h-15v-34.596c0-4.142-3.358-7.5-7.5-7.5s-7.5 3.358-7.5 7.5v34.596h-5.667c-6.938 0-12.583 5.645-12.583 12.583v19.835c0 6.053 4.297 11.119 10 12.313v64.769h-35.5v-64.268c5.703-1.195 10-6.261 10-12.313v-19.835c0-6.938-5.645-12.583-12.583-12.583h-54.834c-6.938 0-12.583 5.645-12.583 12.583v19.835c0 6.053 4.297 11.119 10 12.313v64.269h-57.75c-9.649 0-17.5 7.851-17.5 17.5v23c0 8.798 6.534 16.081 15 17.3v113.399c-8.466 1.22-15 8.502-15 17.3v23c0 9.649 7.851 17.5 17.5 17.5h443.246c20.238 0 38.625-11.984 46.84-30.532 6.238-14.078 5.876-30.059-.993-43.842zm-120.593-209.625v-129h15v129zm14.277-144h-15.456c-2.413-7.486-8.335-13.408-15.821-15.821v-15.456c15.775 3.046 28.231 15.502 31.277 31.277zm-102.777 78c13.509 0 24.5-10.991 24.5-24.5v-46c0-19.216 13.795-35.262 32-38.777v15.455c-9.851 3.176-17 12.427-17 23.321v46c0 21.78-17.72 39.5-39.5 39.5-19.216 0-35.262-13.795-38.777-32h15.456c3.176 9.852 12.427 17.001 23.321 17.001zm-24.5-70.5v38.5h-15v-38.5c0-10.894-7.149-20.146-17-23.321v-15.456c18.205 3.515 32 19.561 32 38.777zm-49 0c0-5.238 4.262-9.5 9.5-9.5s9.5 4.262 9.5 9.5v46c0 30.051 24.449 54.5 54.5 54.5s54.5-24.449 54.5-54.5v-46c0-5.238 4.262-9.5 9.5-9.5s9.5 4.262 9.5 9.5v136.5h-33.787c-9.649 0-17.5 7.851-17.5 17.5v10c0 9.63 7.82 17.466 17.443 17.497v39.421c0 3.478-.819 6.96-2.369 10.071l-42.787 85.853v-67.695c7.978-1.626 14-8.696 14-17.147v-23c0-9.649-7.851-17.5-17.5-17.5h-57.75v-64.769c5.703-1.195 10-6.261 10-12.313v-19.835c0-6.938-5.645-12.583-12.583-12.583h-4.167zm38 362.5v-113h15v97.5c-2.358 4.961-3.897 10.186-4.587 15.5zm-209.5-39.724c-4.142 0-7.5 3.358-7.5 7.5v32.224h-15v-113h15v45.776c0 4.142 3.358 7.5 7.5 7.5s7.5-3.358 7.5-7.5v-45.776h15.25v68c0 16.542 13.458 30 30 30s30-13.458 30-30v-68h35.5v67.5c0 16.542 13.458 30 30 30s30-13.458 30-30v-67.5h16.25v113h-187v-32.224c0-4.142-3.358-7.5-7.5-7.5zm37.75-12.276h10.25c4.142 0 7.5-3.358 7.5-7.5s-3.358-7.5-7.5-7.5h-10.25v-15h10.25c4.142 0 7.5-3.358 7.5-7.5s-3.358-7.5-7.5-7.5h-10.25v-16h30v68c0 8.271-6.729 15-15 15s-15-6.729-15-15zm95.5 0h9.75c4.142 0 7.5-3.358 7.5-7.5s-3.358-7.5-7.5-7.5h-9.75v-15h9.75c4.142 0 7.5-3.358 7.5-7.5s-3.358-7.5-7.5-7.5h-9.75v-16h30v67.5c0 8.271-6.729 15-15 15s-15-6.729-15-15zm0-183.5h30v25.5h-30zm-10-30h50v15h-50zm10 70.5h30v24h-30zm-95.5-40h30v25h-30zm-10-30h50v15h-50zm10 70h30v24h-30zm-75.25 41.5c0-1.378 1.122-2.5 2.5-2.5h271c1.378 0 2.5 1.122 2.5 2.5v23c0 1.378-1.122 2.5-2.5 2.5h-271c-1.378 0-2.5-1.122-2.5-2.5zm2.5 196.5c-1.378 0-2.5-1.122-2.5-2.5v-23c0-1.378 1.122-2.5 2.5-2.5h255.195c1.419 9.252 6.625 20.401 14.384 28zm476.372-21.607c-5.814 13.125-18.817 21.607-33.125 21.607h-137.493c-14.309 0-27.311-8.481-33.125-21.607-4.421-9.98-4.165-21.308.703-31.077l57.38-115.137c2.58-5.178 3.944-10.974 3.944-16.761v-39.418h16.344c4.142 0 7.5-3.358 7.5-7.5s-3.358-7.5-7.5-7.5h-31.287c-1.378 0-2.5-1.122-2.5-2.5v-10c0-1.378 1.122-2.5 2.5-2.5h109.574c1.378 0 2.5 1.122 2.5 2.5v10c0 1.378-1.122 2.5-2.5 2.5h-43.287c-4.142 0-7.5 3.358-7.5 7.5s3.358 7.5 7.5 7.5h28.344v39.418c0 5.788 1.364 11.583 3.944 16.762l57.379 115.136c4.87 9.769 5.126 21.096.705 31.077z"/><path d="m440.509 347.228c-2.042-4.385-6.483-7.219-11.315-7.219h-21.599c-3.047-8.162-10.886-14-20.08-14s-17.034 5.838-20.08 14h-11.661c-4.789 0-9.212 2.797-11.271 7.125l-41.665 87.605c-3.647 7.668-2.072 16.858 3.918 22.869 3.792 3.805 8.836 5.9 14.203 5.9h47.36c4.142 0 7.5-3.358 7.5-7.5s-3.358-7.5-7.5-7.5h-47.36c-1.351 0-2.622-.529-3.579-1.489-1.527-1.533-1.928-3.878-.996-5.837l40.983-86.173h10.067c3.047 8.162 10.886 14 20.08 14s17.034-5.838 20.08-14h19.991l40.083 86.112c.919 1.976.506 4.338-1.028 5.878-.971.974-2.259 1.51-3.628 1.51h-59.693c-4.142 0-7.5 3.358-7.5 7.5s3.358 7.5 7.5 7.5h59.693c5.385 0 10.447-2.103 14.252-5.921 5.958-5.979 7.567-15.14 4.003-22.797zm-52.994 6.781c-3.559 0-6.454-2.916-6.454-6.5s2.896-6.5 6.454-6.5 6.454 2.916 6.454 6.5-2.896 6.5-6.454 6.5z"/><path d="m436.379 407.509c0-13.785-11.189-25-24.943-25s-24.942 11.215-24.942 25 11.189 25 24.942 25 24.943-11.215 24.943-25zm-34.885 0c0-5.514 4.46-10 9.942-10s9.943 4.486 9.943 10-4.46 10-9.943 10-9.942-4.486-9.942-10z"/></g></svg>