<?xml version="1.0" encoding="UTF-8"?>
<svg xmlns="http://www.w3.org/2000/svg" viewBox="0 0 512 512" width="512" height="512"><g id="Layer_2" data-name="Layer 2"><path d="M111.92,67.825H76.141a9.177,9.177,0,0,0-9.166,9.166v28.546a9.177,9.177,0,0,0,9.166,9.167H111.92a9.177,9.177,0,0,0,9.167-9.167V76.991A9.177,9.177,0,0,0,111.92,67.825ZM109.087,102.7H78.975V79.825h30.112Z"/><path d="M111.92,132.988H76.141a9.177,9.177,0,0,0-9.166,9.166V170.7a9.177,9.177,0,0,0,9.166,9.166H111.92a9.177,9.177,0,0,0,9.167-9.166V142.154A9.177,9.177,0,0,0,111.92,132.988Zm-2.833,34.879H78.975V144.988h30.112Z"/><path d="M111.92,198.151H76.141a9.177,9.177,0,0,0-9.166,9.166v28.547a9.177,9.177,0,0,0,9.166,9.166H111.92a9.177,9.177,0,0,0,9.167-9.166V207.317A9.177,9.177,0,0,0,111.92,198.151Zm-2.833,34.879H78.975V210.151h30.112Z"/><path d="M111.92,263.314H76.141a9.177,9.177,0,0,0-9.166,9.167v28.546a9.177,9.177,0,0,0,9.166,9.166H111.92a9.177,9.177,0,0,0,9.167-9.166V272.481A9.178,9.178,0,0,0,111.92,263.314Zm-2.833,34.879H78.975V275.314h30.112Z"/><path d="M111.92,328.478H76.141a9.177,9.177,0,0,0-9.166,9.167V366.19a9.177,9.177,0,0,0,9.166,9.167H111.92a9.177,9.177,0,0,0,9.167-9.167V337.645A9.177,9.177,0,0,0,111.92,328.478Zm-2.833,34.879H78.975V340.478h30.112Z"/><path d="M111.92,393.641H76.141a9.177,9.177,0,0,0-9.166,9.167v28.546a9.177,9.177,0,0,0,9.166,9.167H111.92a9.178,9.178,0,0,0,9.167-9.167V402.808A9.177,9.177,0,0,0,111.92,393.641Zm-2.833,34.88H78.975v-22.88h30.112Z"/><path d="M434.892,67.825h-35.78a9.177,9.177,0,0,0-9.166,9.166v28.547a9.177,9.177,0,0,0,9.166,9.166h35.78a9.177,9.177,0,0,0,9.166-9.166V76.991A9.177,9.177,0,0,0,434.892,67.825ZM432.058,102.7H401.946V79.825h30.112Z"/><path d="M434.892,132.988h-35.78a9.177,9.177,0,0,0-9.166,9.167V170.7a9.177,9.177,0,0,0,9.166,9.166h35.78a9.177,9.177,0,0,0,9.166-9.166V142.155A9.177,9.177,0,0,0,434.892,132.988Zm-2.834,34.879H401.946V144.988h30.112Z"/><path d="M434.892,198.151h-35.78a9.177,9.177,0,0,0-9.166,9.167v28.546a9.177,9.177,0,0,0,9.166,9.166h35.78a9.177,9.177,0,0,0,9.166-9.166V207.318A9.177,9.177,0,0,0,434.892,198.151Zm-2.834,34.879H401.946V210.151h30.112Z"/><path d="M434.892,263.314h-35.78a9.178,9.178,0,0,0-9.167,9.167v28.546a9.178,9.178,0,0,0,9.167,9.167h35.779a9.177,9.177,0,0,0,9.167-9.167V272.481A9.177,9.177,0,0,0,434.892,263.314Zm-2.834,34.88H401.945v-22.88h30.113Z"/><path d="M434.891,328.478H399.112a9.178,9.178,0,0,0-9.167,9.167V366.19a9.178,9.178,0,0,0,9.167,9.167h35.779a9.178,9.178,0,0,0,9.167-9.167V337.645A9.177,9.177,0,0,0,434.891,328.478Zm-2.833,34.879H401.945V340.478h30.113Z"/><path d="M434.891,393.642H399.112a9.177,9.177,0,0,0-9.167,9.166v28.546a9.178,9.178,0,0,0,9.167,9.167h35.779a9.178,9.178,0,0,0,9.167-9.167V402.808A9.177,9.177,0,0,0,434.891,393.642Zm-2.833,34.879H401.945V405.642h30.113Z"/><path d="M462.259,10.231H49.741a6,6,0,0,0-6,6V495.484a6,6,0,0,0,6,6H462.259a6,6,0,0,0,6-6V16.231A6,6,0,0,0,462.259,10.231Zm-60.313,12h30.112v15.31H401.946Zm-257.04,0H365.071V97.823a2.6,2.6,0,0,1-2.593,2.6H147.5a2.6,2.6,0,0,1-2.593-2.6Zm-65.931,0h30.112v15.31H78.975Zm30.112,467.253H78.975V470.805h30.112Zm255.983,0H144.905V403.8A3.1,3.1,0,0,1,148,400.7H361.978a3.1,3.1,0,0,1,3.093,3.1Zm66.988,0H401.945V470.805h30.113Zm24.2,0h-12.2V467.971a9.177,9.177,0,0,0-9.167-9.166H399.112a9.177,9.177,0,0,0-9.167,9.166v21.513H377.07V403.8a15.115,15.115,0,0,0-15.093-15.1H148a15.115,15.115,0,0,0-15.094,15.1v85.688H121.087V467.971a9.177,9.177,0,0,0-9.167-9.166H76.141a9.177,9.177,0,0,0-9.166,9.166v21.513H55.741V22.231H66.975V40.374a9.177,9.177,0,0,0,9.166,9.167H111.92a9.177,9.177,0,0,0,9.167-9.167V22.231h11.819V97.823a14.613,14.613,0,0,0,14.593,14.6H362.478a14.614,14.614,0,0,0,14.593-14.6V22.231h12.875V40.374a9.177,9.177,0,0,0,9.166,9.167h35.78a9.177,9.177,0,0,0,9.166-9.167V22.231h12.2Z"/><path d="M365.273,136.063H144.7A14.85,14.85,0,0,0,129.87,150.9V353.87A14.849,14.849,0,0,0,144.7,368.7h220.57a14.85,14.85,0,0,0,14.833-14.833V150.9A14.85,14.85,0,0,0,365.273,136.063Zm2.833,217.807a2.836,2.836,0,0,1-2.833,2.833H144.7a2.836,2.836,0,0,1-2.833-2.832V150.9a2.836,2.836,0,0,1,2.833-2.833h220.57a2.836,2.836,0,0,1,2.833,2.833Z"/></g></svg>
